<?xml version="1.0" encoding="UTF-8"?>
<svg width="540" height="380" viewBox="0 0 540 380" xmlns="http://www.w3.org/2000/svg">
  <rect width="540" height="380" fill="#000000"/>
  <g transform="translate(205.00,135.71) scale(1.00292)"><g stroke-linecap="round"><g transform="translate(47.36749756713107 10.861962353707668) rotate(45.509381264092845 -3.5558538153782138 23.54557735929177)"><path d="M0 0 C-1.4 2.43, -8.62 6.71, -8.41 14.56 C-8.19 22.41, -0.32 41.67, 1.3 47.09 M0 0 C-1.4 2.43, -8.62 6.71, -8.41 14.56 C-8.19 22.41, -0.32 41.67, 1.3 47.09" stroke="#FFFFFF" stroke-width="4" fill="none"></path></g></g><mask></mask><g stroke-linecap="round"><g transform="translate(70.94760325338575 11.725969016095632) rotate(225.50938126409284 -3.5558538153782138 23.54557735929177)"><path d="M0 0 C-1.4 2.43, -8.62 6.71, -8.41 14.56 C-8.19 22.41, -0.32 41.67, 1.3 47.09 M0 0 C-1.4 2.43, -8.62 6.71, -8.41 14.56 C-8.19 22.41, -0.32 41.67, 1.3 47.09" stroke="#FFFFFF" stroke-width="4" fill="none"></path></g></g><mask></mask><g stroke-linecap="round"><g transform="translate(65.14391471383715 5.610295974488508) rotate(45.509381264092845 -3.5558538153782138 23.54557735929177)"><path d="M0 0 C-1.4 2.43, -8.62 6.71, -8.41 14.56 C-8.19 22.41, -0.32 41.67, 1.3 47.09 M0 0 C-1.4 2.43, -8.62 6.71, -8.41 14.56 C-8.19 22.41, -0.32 41.67, 1.3 47.09" stroke="#FFFFFF" stroke-width="4" fill="none"></path></g></g><mask></mask><g stroke-linecap="round"><g transform="translate(53.37235774049623 16.884362544987425) rotate(225.50938126409284 -3.5558538153782138 23.54557735929177)"><path d="M0 0 C-1.4 2.43, -8.62 6.71, -8.41 14.56 C-8.19 22.41, -0.32 41.67, 1.3 47.09 M0 0 C-1.4 2.43, -8.62 6.71, -8.41 14.56 C-8.19 22.41, -0.32 41.67, 1.3 47.09" stroke="#FFFFFF" stroke-width="4" fill="none"></path></g></g><mask></mask><g stroke-linecap="round"><g transform="translate(89.24184589408833 6.4995256648282975) rotate(225.50938126409284 -3.624447527810844 23.600687472985555)"><path d="M0 0 C-1.42 2.43, -8.7 6.69, -8.49 14.56 C-8.28 22.43, -0.38 41.76, 1.25 47.2 M0 0 C-1.42 2.43, -8.7 6.69, -8.49 14.56 C-8.28 22.43, -0.38 41.76, 1.25 47.2" stroke="#FFFFFF" stroke-width="4" fill="none"></path></g></g><mask></mask><g stroke-linecap="round"><g transform="translate(83.37073333949957 0.41836361732271143) rotate(45.509381264092845 -3.5558538153782138 23.54557735929177)"><path d="M0 0 C-1.4 2.43, -8.62 6.71, -8.41 14.56 C-8.19 22.41, -0.32 41.67, 1.3 47.09 M0 0 C-1.4 2.43, -8.62 6.71, -8.41 14.56 C-8.19 22.41, -0.32 41.67, 1.3 47.09" stroke="#FFFFFF" stroke-width="4" fill="none"></path></g></g><mask></mask><g stroke-linecap="round"><g transform="translate(33.29902661766391 26.547611630078563) rotate(36.748427117088404 -8.414828615234 14.064168629541768)"><path d="M0 0 C-2.96 2.96, -15.32 13.09, -17.74 17.74 C-20.17 22.4, -17.82 29.32, -14.55 27.95 C-11.27 26.59, -0.83 12.63, 1.91 9.57 M0 0 C-2.96 2.96, -15.32 13.09, -17.74 17.74 C-20.17 22.4, -17.82 29.32, -14.55 27.95 C-11.27 26.59, -0.83 12.63, 1.91 9.57" stroke="#FFFFFF" stroke-width="4" fill="none"></path></g></g><mask></mask><g stroke-linecap="round"><g transform="translate(112.52135520515003 14.766141978097721) rotate(225.50938126409284 -8.414828615234 14.064168629541768)"><path d="M0 0 C-2.96 2.96, -15.32 13.09, -17.74 17.74 C-20.17 22.4, -17.82 29.32, -14.55 27.95 C-11.27 26.59, -0.83 12.63, 1.91 9.57 M0 0 C-2.96 2.96, -15.32 13.09, -17.74 17.74 C-20.17 22.4, -17.82 29.32, -14.55 27.95 C-11.27 26.59, -0.83 12.63, 1.91 9.57" stroke="#FFFFFF" stroke-width="4" fill="none"></path></g></g><mask></mask></g>
</svg>