<?xml version="1.0" standalone="no"?>
<!DOCTYPE svg PUBLIC "-//W3C//DTD SVG 20010904//EN"
 "http://www.w3.org/TR/2001/REC-SVG-20010904/DTD/svg10.dtd">
<svg version="1.0" xmlns="http://www.w3.org/2000/svg"
 width="433.000000pt" height="600.000000pt" viewBox="0 0 433.000000 600.000000"
 preserveAspectRatio="xMidYMid meet">
<g transform="translate(0.000000,600.000000) scale(0.100000,-0.100000)"
fill="#FFFFFF" stroke="none">
<path d="M1415 5251 c-51 -23 -91 -70 -106 -124 -7 -25 -10 -106 -7 -212 3
-194 11 -217 90 -271 l43 -29 857 0 856 0 44 30 c23 17 54 51 68 75 23 43 25
53 25 205 0 190 -6 224 -48 272 -68 77 -11 73 -947 73 -789 0 -837 -1 -875
-19z m1665 -306 l0 -125 -790 0 -790 0 0 118 c0 65 3 122 7 125 3 4 359 7 790
7 l783 0 0 -125z"/>
<path d="M1145 5001 c-125 -36 -248 -112 -331 -204 -125 -139 -184 -294 -204
-532 -13 -165 -13 -2765 0 -2910 15 -156 43 -266 97 -375 39 -77 62 -110 128
-175 93 -93 162 -137 279 -176 170 -57 209 -59 1174 -59 550 0 910 4 959 10
281 38 467 142 589 331 80 126 119 254 134 444 13 163 13 2742 0 2911 -23 305
-136 518 -343 649 -71 45 -113 63 -195 86 -48 13 -65 14 -68 5 -3 -7 -3 -54
-2 -105 l3 -93 51 -18 c169 -59 287 -202 330 -400 18 -81 19 -158 19 -1590 l0
-1505 -23 -84 c-59 -216 -164 -327 -372 -397 l-85 -29 -990 0 c-929 0 -994 1
-1055 18 -251 71 -385 234 -419 512 -7 62 -11 537 -11 1500 0 1514 0 1518 51
1666 26 76 93 175 152 222 46 38 157 97 182 97 13 0 15 18 15 110 0 61 -1 110
-2 109 -2 0 -30 -8 -63 -18z"/>
<path d="M2873 4533 c-61 -12 -180 -157 -319 -388 -144 -241 -136 -230 -151
-209 -8 11 -35 57 -61 103 -26 46 -60 94 -75 107 -52 44 -118 23 -159 -48 -14
-24 -44 -74 -67 -111 -23 -38 -57 -103 -74 -145 -30 -72 -32 -86 -33 -204 l-2
-127 -45 -68 c-107 -163 -131 -234 -133 -393 l-1 -125 -57 -93 c-98 -157 -133
-299 -107 -434 7 -35 30 -106 52 -157 l39 -95 -86 -180 c-156 -325 -197 -446
-197 -576 0 -232 138 -459 279 -460 47 0 114 49 151 111 35 58 121 269 168
411 16 48 33 84 37 82 5 -3 27 -39 49 -80 48 -88 78 -114 129 -114 37 0 90 30
90 51 0 6 20 42 45 80 116 179 151 284 142 426 l-6 92 38 58 c107 161 147 285
136 421 l-6 83 49 77 c77 120 110 192 129 285 22 109 11 195 -41 322 -21 50
-39 97 -42 105 -3 9 58 98 142 210 238 317 296 431 297 580 0 145 -50 279
-134 354 -57 51 -101 64 -176 49z m65 -225 c19 -24 42 -121 42 -177 0 -38 -8
-73 -25 -109 -35 -75 -205 -326 -302 -445 l-22 -27 -45 77 c-25 43 -46 84 -46
91 0 7 35 70 77 140 42 70 81 136 87 147 28 52 207 315 215 315 5 0 13 -6 19
-12z m-611 -635 c131 -222 241 -430 278 -528 37 -96 37 -177 0 -267 -42 -105
-44 -105 -115 24 -35 62 -108 190 -163 283 -56 94 -121 215 -146 270 -42 93
-46 106 -46 185 0 75 4 93 32 153 18 37 36 67 40 67 5 0 59 -84 120 -187z
m-233 -500 c53 -97 113 -199 211 -363 144 -241 178 -376 126 -505 -13 -33 -29
-66 -34 -73 -12 -16 -18 -7 -79 108 -25 47 -52 97 -60 110 -103 168 -245 413
-271 467 -28 60 -32 78 -31 148 0 68 5 90 32 148 17 37 34 67 39 67 4 0 35
-48 67 -107z m-196 -543 c69 -133 177 -318 273 -472 93 -147 114 -202 114
-293 0 -69 -5 -89 -33 -148 -19 -42 -37 -67 -44 -65 -21 7 -216 334 -312 523
-88 172 -111 239 -110 320 1 90 51 222 75 198 4 -4 21 -33 37 -63z m-49 -783
c50 -83 51 -65 -17 -257 -94 -263 -155 -410 -171 -410 -18 0 -53 114 -58 186
-5 59 -1 86 21 155 28 87 165 399 175 399 3 0 26 -33 50 -73z"/>
</g>
</svg>
